<svg width="207.349" height="40.161" viewBox="0 0 207.349 40.161" xmlns="http://www.w3.org/2000/svg"><g id="svgGroup" stroke-linecap="round" fill-rule="evenodd" font-size="9pt" stroke="#ffffff" stroke-width="0.25mm" fill="#094040" style="stroke:#ffffff;stroke-width:0.25mm;fill:#094040"><path d="M 151.05 35.01 L 173.926 35.01 L 173.926 39.502 L 140.625 39.502 Q 141.162 36.133 142.163 33.679 A 21.771 21.771 0 0 1 143.243 31.4 A 16.399 16.399 0 0 1 144.482 29.468 Q 145.801 27.71 147.351 26.526 A 20.189 20.189 0 0 1 150.13 24.734 A 18.457 18.457 0 0 1 150.537 24.524 A 24.76 24.76 0 0 1 153.833 23.157 A 1572.14 1572.14 0 0 0 156.255 22.353 A 1401.89 1401.89 0 0 0 157.031 22.095 A 38.366 38.366 0 0 0 158.873 21.43 A 32.4 32.4 0 0 0 159.9 21.008 A 9.416 9.416 0 0 0 161.499 20.134 A 8.115 8.115 0 0 0 162.219 19.58 A 6.015 6.015 0 0 0 163.77 17.493 Q 164.331 16.26 164.331 14.429 Q 164.331 12.769 163.77 11.524 A 5.941 5.941 0 0 0 162.653 9.846 A 5.572 5.572 0 0 0 162.231 9.448 A 6.368 6.368 0 0 0 160.331 8.343 A 7.48 7.48 0 0 0 159.924 8.203 A 9.291 9.291 0 0 0 157.595 7.8 A 10.71 10.71 0 0 0 157.08 7.788 A 7.542 7.542 0 0 0 154.852 8.111 A 6.921 6.921 0 0 0 154.138 8.374 Q 152.783 8.96 151.697 10.022 A 9.909 9.909 0 0 0 150.232 11.855 A 11.771 11.771 0 0 0 149.817 12.573 A 12.701 12.701 0 0 0 148.856 14.945 A 15.057 15.057 0 0 0 148.608 15.894 L 141.113 11.743 A 10.59 10.59 0 0 1 143.958 8.179 A 18.202 18.202 0 0 1 148.047 5.652 A 22.257 22.257 0 0 1 152.722 4.138 A 24.701 24.701 0 0 1 155.588 3.714 A 20.266 20.266 0 0 1 157.324 3.638 Q 159.424 3.638 161.475 3.809 Q 163.525 3.98 165.369 4.443 A 16.246 16.246 0 0 1 168.077 5.377 A 14.56 14.56 0 0 1 168.774 5.713 Q 170.337 6.519 171.484 7.776 A 8.777 8.777 0 0 1 172.995 10.098 A 10.424 10.424 0 0 1 173.279 10.791 A 10.013 10.013 0 0 1 173.764 12.702 Q 173.926 13.733 173.926 14.917 Q 173.926 16.854 173.46 18.316 A 7.719 7.719 0 0 1 173.34 18.665 A 8.997 8.997 0 0 1 172.458 20.436 A 7.668 7.668 0 0 1 171.753 21.362 Q 170.752 22.485 169.397 23.254 Q 168.042 24.024 166.504 24.609 A 37.445 37.445 0 0 1 163.318 25.659 A 101.051 101.051 0 0 0 160.059 26.636 Q 158.447 27.149 156.958 27.808 A 12.049 12.049 0 0 0 154.442 29.297 A 11.234 11.234 0 0 0 154.272 29.431 A 9.373 9.373 0 0 0 152.222 31.751 A 7.771 7.771 0 0 0 151.413 33.501 A 10.408 10.408 0 0 0 151.05 35.01 Z M 183.276 11.304 L 189.307 11.304 A 45.481 45.481 0 0 0 188.28 14.876 A 49.7 49.7 0 0 0 188.22 15.125 A 57.429 57.429 0 0 0 187.415 19.104 A 57.535 57.535 0 0 0 186.902 22.998 A 41.145 41.145 0 0 0 186.754 25.055 A 32.51 32.51 0 0 0 186.719 26.538 Q 186.719 27.49 186.804 28.577 Q 186.89 29.663 187.109 30.75 Q 187.329 31.836 187.732 32.837 A 6.87 6.87 0 0 0 188.467 34.208 A 6.181 6.181 0 0 0 188.77 34.607 A 4.654 4.654 0 0 0 190.32 35.828 Q 191.235 36.279 192.48 36.279 A 4.648 4.648 0 0 0 193.806 36.096 A 4.058 4.058 0 0 0 194.666 35.73 Q 195.63 35.181 196.362 34.29 A 8.701 8.701 0 0 0 197.407 32.672 A 10.029 10.029 0 0 0 197.607 32.251 Q 198.12 31.104 198.45 29.895 A 18.809 18.809 0 0 0 198.896 27.818 A 17.036 17.036 0 0 0 198.938 27.527 Q 199.097 26.367 199.097 25.44 L 199.097 11.304 L 207.349 11.304 L 207.349 39.502 L 204.175 39.502 L 200.391 32.935 A 14.311 14.311 0 0 1 198.918 35.564 A 13.17 13.17 0 0 1 198.669 35.901 A 11.348 11.348 0 0 1 196.362 38.184 Q 195.068 39.136 193.494 39.649 A 10.55 10.55 0 0 1 190.932 40.133 A 12.469 12.469 0 0 1 190.088 40.161 Q 187.21 40.161 185.062 39.242 A 9.614 9.614 0 0 1 184.985 39.209 A 10.176 10.176 0 0 1 182.189 37.416 A 9.441 9.441 0 0 1 181.372 36.572 A 10.702 10.702 0 0 1 179.522 33.425 A 12.758 12.758 0 0 1 179.224 32.556 A 16.374 16.374 0 0 1 178.599 29.302 A 20.17 20.17 0 0 1 178.516 27.441 A 24.865 24.865 0 0 1 178.725 24.275 A 28.374 28.374 0 0 1 178.845 23.438 Q 179.175 21.362 179.797 19.287 A 37.073 37.073 0 0 1 181.299 15.186 Q 182.178 13.159 183.276 11.304 Z M 133.057 31.299 L 136.621 32.617 A 10.234 10.234 0 0 1 134.412 35.95 A 12.736 12.736 0 0 1 131.238 38.269 Q 129.468 39.185 127.478 39.624 A 18.24 18.24 0 0 1 123.535 40.064 A 16.754 16.754 0 0 1 119.425 39.573 A 14.791 14.791 0 0 1 117.578 38.977 A 14.08 14.08 0 0 1 113.372 36.412 A 13.405 13.405 0 0 1 112.866 35.938 A 13.984 13.984 0 0 1 109.801 31.359 A 15.912 15.912 0 0 1 109.766 31.274 A 14.902 14.902 0 0 1 108.685 26.581 A 17.683 17.683 0 0 1 108.643 25.342 A 16.149 16.149 0 0 1 109.126 21.333 A 14.184 14.184 0 0 1 109.766 19.409 A 14.069 14.069 0 0 1 112.607 15.009 A 13.533 13.533 0 0 1 112.866 14.746 A 13.901 13.901 0 0 1 117.408 11.775 A 15.862 15.862 0 0 1 117.578 11.707 A 15.559 15.559 0 0 1 122.344 10.658 A 18.348 18.348 0 0 1 123.535 10.62 A 23.981 23.981 0 0 1 126.682 10.833 A 26.182 26.182 0 0 1 126.733 10.84 Q 128.369 11.06 129.907 11.536 Q 131.445 12.012 132.813 12.769 Q 134.18 13.525 135.193 14.636 A 8.619 8.619 0 0 1 136.804 17.212 A 7.912 7.912 0 0 1 137.304 19.098 A 10.376 10.376 0 0 1 137.402 20.557 A 9.156 9.156 0 0 1 137.262 22.196 A 7.086 7.086 0 0 1 136.841 23.645 Q 136.279 25 135.315 26.025 A 9.184 9.184 0 0 1 133.081 27.759 A 14.379 14.379 0 0 1 130.371 28.919 Q 128.931 29.37 127.405 29.566 A 23.65 23.65 0 0 1 124.8 29.758 A 21.487 21.487 0 0 1 124.438 29.761 A 25.347 25.347 0 0 1 120.825 29.504 A 21.168 21.168 0 0 1 117.31 28.687 Q 117.578 30.298 118.164 31.751 A 8.713 8.713 0 0 0 119.346 33.833 A 8.011 8.011 0 0 0 119.727 34.29 A 6.938 6.938 0 0 0 121.868 35.888 A 8.031 8.031 0 0 0 122.131 36.011 Q 123.56 36.646 125.513 36.646 A 7.746 7.746 0 0 0 127.979 36.255 A 7.883 7.883 0 0 0 130.127 35.156 A 8.233 8.233 0 0 0 131.848 33.472 A 8.82 8.82 0 0 0 133.057 31.299 Z M 107.349 11.304 L 96.24 39.502 L 88.818 39.502 L 78.564 11.304 L 86.816 11.304 L 94.336 33.765 L 101.636 11.304 L 107.349 11.304 Z M 15.503 39.502 L 0 39.502 L 0 4.346 L 15.503 4.346 A 19.856 19.856 0 0 1 20.337 4.932 A 19.642 19.642 0 0 1 24.744 6.604 A 18.278 18.278 0 0 1 28.528 9.253 Q 30.249 10.816 31.482 12.756 A 16.752 16.752 0 0 1 33.398 17.004 A 16.934 16.934 0 0 1 34.079 21.516 A 19.027 19.027 0 0 1 34.082 21.875 A 17.252 17.252 0 0 1 33.559 26.165 A 15.975 15.975 0 0 1 33.398 26.746 A 16.965 16.965 0 0 1 31.482 31.006 Q 30.249 32.959 28.54 34.534 A 18.093 18.093 0 0 1 24.768 37.207 A 19.647 19.647 0 0 1 20.349 38.904 A 19.616 19.616 0 0 1 15.503 39.502 Z M 63.086 13.794 L 58.447 21.484 A 26.52 26.52 0 0 0 58.158 20.583 Q 57.951 19.974 57.69 19.287 A 12.229 12.229 0 0 0 56.543 17.004 A 6.913 6.913 0 0 0 55.054 15.337 A 6.556 6.556 0 0 0 54.907 15.222 A 3.543 3.543 0 0 0 52.71 14.502 A 3.776 3.776 0 0 0 51.639 14.649 A 3.161 3.161 0 0 0 50.72 15.088 A 5.06 5.06 0 0 0 49.442 16.384 A 5.899 5.899 0 0 0 49.292 16.614 Q 48.706 17.554 48.328 18.738 A 17.681 17.681 0 0 0 47.742 21.13 A 23.333 23.333 0 0 0 47.509 22.853 A 20.186 20.186 0 0 0 47.461 23.45 A 39.804 39.804 0 0 0 47.416 24.24 Q 47.398 24.629 47.392 24.972 A 20.186 20.186 0 0 0 47.388 25.366 L 47.388 39.502 L 39.111 39.502 L 39.111 11.304 L 42.285 11.304 L 45.63 17.871 A 19.169 19.169 0 0 1 46.843 15.505 A 17.068 17.068 0 0 1 47.192 14.954 A 10.733 10.733 0 0 1 48.936 12.906 A 9.959 9.959 0 0 1 49.219 12.659 Q 50.366 11.694 51.819 11.157 A 8.508 8.508 0 0 1 53.677 10.709 A 11.048 11.048 0 0 1 55.103 10.62 Q 56.04 10.62 57.19 10.774 A 21.743 21.743 0 0 1 57.227 10.779 Q 58.398 10.938 59.521 11.316 Q 60.645 11.694 61.597 12.305 A 4.92 4.92 0 0 1 62.625 13.173 A 4.325 4.325 0 0 1 63.086 13.794 Z M 12.256 7.666 L 9.692 7.666 L 9.692 36.084 L 12.256 36.084 A 13.972 13.972 0 0 0 14.808 35.862 A 10.176 10.176 0 0 0 17.615 34.924 A 10.735 10.735 0 0 0 21.35 31.799 A 13.145 13.145 0 0 0 23.321 27.98 A 15.264 15.264 0 0 0 23.535 27.271 A 20.035 20.035 0 0 0 24.24 22.272 A 22.433 22.433 0 0 0 24.243 21.875 A 21.071 21.071 0 0 0 23.748 17.255 A 19.278 19.278 0 0 0 23.547 16.443 A 13.787 13.787 0 0 0 22.237 13.212 A 12.229 12.229 0 0 0 21.387 11.914 A 10.556 10.556 0 0 0 17.664 8.814 Q 15.469 7.699 12.434 7.667 A 17.08 17.08 0 0 0 12.256 7.666 Z M 74.829 11.328 L 74.829 39.502 L 66.553 39.502 L 66.553 11.328 L 74.829 11.328 Z M 117.065 26.123 A 32.789 32.789 0 0 0 120.093 26.66 A 23.823 23.823 0 0 0 123.145 26.856 A 14.963 14.963 0 0 0 125.022 26.742 A 12.294 12.294 0 0 0 126.135 26.55 A 7.117 7.117 0 0 0 127.571 26.076 A 5.881 5.881 0 0 0 128.528 25.525 A 4.938 4.938 0 0 0 130.013 23.829 A 5.838 5.838 0 0 0 130.127 23.608 A 5.351 5.351 0 0 0 130.548 22.358 Q 130.713 21.577 130.713 20.63 A 9.243 9.243 0 0 0 130.582 19.046 A 7.556 7.556 0 0 0 130.322 17.993 A 5.922 5.922 0 0 0 129.647 16.57 A 5.238 5.238 0 0 0 129.163 15.942 A 5.249 5.249 0 0 0 127.375 14.657 A 6.053 6.053 0 0 0 127.271 14.612 A 5.836 5.836 0 0 0 125.891 14.227 A 7.965 7.965 0 0 0 124.658 14.136 A 6.497 6.497 0 0 0 123.22 14.289 A 5.354 5.354 0 0 0 122.156 14.649 A 6.493 6.493 0 0 0 120.203 16.028 A 8.398 8.398 0 0 0 118.916 17.76 A 9.487 9.487 0 0 0 118.762 18.042 A 14.656 14.656 0 0 0 117.773 20.435 A 15.131 15.131 0 0 0 117.212 22.949 A 19.362 19.362 0 0 0 117.065 24.479 A 15.889 15.889 0 0 0 117.041 25.342 L 117.041 25.733 A 3.146 3.146 0 0 0 117.065 26.123 Z M 74.841 6.25 A 4.434 4.434 0 0 0 75.195 4.492 A 4.347 4.347 0 0 0 74.841 2.747 Q 74.487 1.929 73.877 1.318 Q 73.267 0.708 72.437 0.354 A 4.434 4.434 0 0 0 70.679 0 A 4.347 4.347 0 0 0 68.933 0.354 Q 68.115 0.708 67.505 1.318 Q 66.895 1.929 66.541 2.747 A 4.347 4.347 0 0 0 66.187 4.492 A 4.434 4.434 0 0 0 66.541 6.25 Q 66.895 7.08 67.505 7.691 Q 68.115 8.301 68.933 8.655 A 4.347 4.347 0 0 0 70.679 9.009 A 4.434 4.434 0 0 0 72.437 8.655 Q 73.267 8.301 73.877 7.691 Q 74.487 7.08 74.841 6.25 Z" vector-effect="non-scaling-stroke"/></g></svg>