<svg width="124.409" height="24.097" viewBox="0 0 124.409 24.097" xmlns="http://www.w3.org/2000/svg"><g id="svgGroup" stroke-linecap="round" fill-rule="evenodd" font-size="9pt" stroke="#ffffff" stroke-width="0.25mm" fill="#094040" style="stroke:#ffffff;stroke-width:0.25mm;fill:#094040"><path d="M 90.63 21.006 L 104.355 21.006 L 104.355 23.701 L 84.375 23.701 Q 84.663 21.893 85.174 20.524 A 11.315 11.315 0 0 1 85.298 20.208 A 13.062 13.062 0 0 1 85.946 18.84 A 9.839 9.839 0 0 1 86.689 17.681 A 9.611 9.611 0 0 1 87.733 16.497 A 8.064 8.064 0 0 1 88.411 15.916 A 12.114 12.114 0 0 1 90.078 14.841 A 11.074 11.074 0 0 1 90.322 14.714 A 14.856 14.856 0 0 1 92.3 13.894 A 943.305 943.305 0 0 0 93.753 13.412 A 840.246 840.246 0 0 0 94.219 13.257 A 23.02 23.02 0 0 0 95.324 12.858 A 19.44 19.44 0 0 0 95.94 12.605 A 5.65 5.65 0 0 0 96.899 12.081 A 4.869 4.869 0 0 0 97.332 11.748 A 3.609 3.609 0 0 0 98.262 10.496 A 3.461 3.461 0 0 0 98.498 9.752 Q 98.599 9.258 98.599 8.657 A 4.979 4.979 0 0 0 98.526 7.785 A 3.676 3.676 0 0 0 98.262 6.914 Q 97.925 6.167 97.339 5.669 A 3.821 3.821 0 0 0 96.199 5.006 A 4.488 4.488 0 0 0 95.955 4.922 A 5.575 5.575 0 0 0 94.557 4.68 A 6.426 6.426 0 0 0 94.248 4.673 A 4.525 4.525 0 0 0 92.911 4.867 A 4.152 4.152 0 0 0 92.483 5.024 A 4.818 4.818 0 0 0 91.018 6.013 Q 90.366 6.65 89.89 7.544 A 7.621 7.621 0 0 0 89.313 8.967 A 9.034 9.034 0 0 0 89.165 9.536 L 84.668 7.046 A 6.354 6.354 0 0 1 86.375 4.907 Q 87.48 3.999 88.828 3.391 A 13.354 13.354 0 0 1 91.633 2.483 A 14.821 14.821 0 0 1 93.353 2.228 A 12.16 12.16 0 0 1 94.395 2.183 Q 95.654 2.183 96.885 2.285 A 14.852 14.852 0 0 1 98.767 2.56 A 13.229 13.229 0 0 1 99.221 2.666 A 9.747 9.747 0 0 1 100.846 3.226 A 8.736 8.736 0 0 1 101.265 3.428 Q 102.202 3.911 102.891 4.666 A 5.266 5.266 0 0 1 103.797 6.059 A 6.254 6.254 0 0 1 103.967 6.475 A 6.008 6.008 0 0 1 104.258 7.621 Q 104.343 8.162 104.354 8.774 A 10.153 10.153 0 0 1 104.355 8.95 Q 104.355 10.113 104.076 10.99 A 4.631 4.631 0 0 1 104.004 11.199 A 5.398 5.398 0 0 1 103.475 12.262 A 4.601 4.601 0 0 1 103.052 12.817 A 5.541 5.541 0 0 1 101.638 13.953 A 12.574 12.574 0 0 1 99.931 14.755 A 13.748 13.748 0 0 1 99.902 14.766 Q 98.979 15.117 97.991 15.396 A 60.63 60.63 0 0 0 96.035 15.981 Q 95.068 16.289 94.175 16.685 A 7.229 7.229 0 0 0 92.665 17.578 A 6.742 6.742 0 0 0 92.563 17.659 Q 91.846 18.237 91.333 19.05 Q 90.82 19.863 90.63 21.006 Z M 109.966 6.782 L 113.584 6.782 A 27.289 27.289 0 0 0 112.968 8.926 A 29.815 29.815 0 0 0 112.932 9.075 Q 112.646 10.269 112.449 11.462 Q 112.251 12.656 112.141 13.799 A 24.687 24.687 0 0 0 112.052 15.033 A 19.506 19.506 0 0 0 112.031 15.923 A 14.502 14.502 0 0 0 112.051 16.668 A 17.741 17.741 0 0 0 112.083 17.146 A 10.872 10.872 0 0 0 112.266 18.45 Q 112.397 19.102 112.639 19.702 Q 112.881 20.303 113.262 20.764 A 2.793 2.793 0 0 0 114.192 21.497 A 2.557 2.557 0 0 0 114.893 21.719 A 3.505 3.505 0 0 0 115.488 21.768 A 2.789 2.789 0 0 0 116.284 21.657 A 2.435 2.435 0 0 0 116.799 21.438 A 3.649 3.649 0 0 0 117.817 20.574 A 5.22 5.22 0 0 0 118.444 19.603 A 6.018 6.018 0 0 0 118.564 19.351 A 9.747 9.747 0 0 0 119.07 17.937 A 11.286 11.286 0 0 0 119.337 16.691 A 10.223 10.223 0 0 0 119.363 16.516 A 11.201 11.201 0 0 0 119.431 15.894 Q 119.455 15.601 119.458 15.338 A 6.67 6.67 0 0 0 119.458 15.264 L 119.458 6.782 L 124.409 6.782 L 124.409 23.701 L 122.505 23.701 L 120.234 19.761 A 8.587 8.587 0 0 1 119.351 21.338 A 7.902 7.902 0 0 1 119.202 21.541 Q 118.594 22.339 117.817 22.91 Q 117.041 23.481 116.096 23.789 A 6.33 6.33 0 0 1 114.559 24.08 A 7.482 7.482 0 0 1 114.053 24.097 A 9.17 9.17 0 0 1 112.602 23.987 Q 111.725 23.847 110.991 23.525 A 6.106 6.106 0 0 1 109.313 22.449 A 5.664 5.664 0 0 1 108.823 21.943 A 6.421 6.421 0 0 1 107.713 20.055 A 7.655 7.655 0 0 1 107.534 19.534 A 9.824 9.824 0 0 1 107.16 17.581 A 12.102 12.102 0 0 1 107.109 16.465 A 14.919 14.919 0 0 1 107.235 14.565 A 17.025 17.025 0 0 1 107.307 14.063 Q 107.505 12.817 107.878 11.572 A 22.244 22.244 0 0 1 108.779 9.111 A 20.849 20.849 0 0 1 109.966 6.782 Z M 79.834 18.779 L 81.973 19.57 Q 81.489 20.728 80.647 21.57 Q 79.805 22.412 78.743 22.961 A 9.212 9.212 0 0 1 76.487 23.774 A 10.944 10.944 0 0 1 74.121 24.038 A 10.052 10.052 0 0 1 71.655 23.744 A 8.875 8.875 0 0 1 70.547 23.386 A 8.448 8.448 0 0 1 68.023 21.847 A 8.043 8.043 0 0 1 67.72 21.563 A 8.391 8.391 0 0 1 65.881 18.815 A 9.54 9.54 0 0 1 65.859 18.765 A 8.941 8.941 0 0 1 65.211 15.949 A 10.61 10.61 0 0 1 65.186 15.205 Q 65.186 13.272 65.859 11.646 A 8.442 8.442 0 0 1 67.564 9.005 A 8.12 8.12 0 0 1 67.72 8.848 A 8.34 8.34 0 0 1 70.445 7.065 A 9.517 9.517 0 0 1 70.547 7.024 A 9.336 9.336 0 0 1 73.406 6.395 A 11.009 11.009 0 0 1 74.121 6.372 A 14.389 14.389 0 0 1 76.009 6.5 A 15.791 15.791 0 0 1 76.04 6.504 A 11.693 11.693 0 0 1 77.944 6.921 A 9.212 9.212 0 0 1 79.687 7.661 Q 80.508 8.115 81.116 8.782 A 5.171 5.171 0 0 1 82.083 10.327 A 4.747 4.747 0 0 1 82.382 11.459 A 6.226 6.226 0 0 1 82.441 12.334 A 5.494 5.494 0 0 1 82.357 13.317 A 4.252 4.252 0 0 1 82.104 14.187 A 4.677 4.677 0 0 1 81.189 15.615 A 5.511 5.511 0 0 1 79.849 16.655 Q 79.087 17.08 78.223 17.351 Q 77.358 17.622 76.443 17.739 Q 75.527 17.856 74.663 17.856 Q 73.564 17.856 72.495 17.703 Q 71.426 17.549 70.386 17.212 A 8.739 8.739 0 0 0 70.898 19.05 A 5.228 5.228 0 0 0 71.608 20.3 A 4.806 4.806 0 0 0 71.836 20.574 A 4.163 4.163 0 0 0 73.121 21.533 A 4.819 4.819 0 0 0 73.279 21.606 Q 74.111 21.976 75.239 21.987 A 7.129 7.129 0 0 0 75.308 21.987 Q 76.084 21.987 76.787 21.753 A 4.73 4.73 0 0 0 78.076 21.094 A 4.94 4.94 0 0 0 79.109 20.083 A 5.292 5.292 0 0 0 79.834 18.779 Z M 64.409 6.782 L 57.744 23.701 L 53.291 23.701 L 47.139 6.782 L 52.09 6.782 L 56.602 20.259 L 60.981 6.782 L 64.409 6.782 Z M 9.302 23.701 L 0 23.701 L 0 2.607 L 9.302 2.607 A 11.913 11.913 0 0 1 12.202 2.959 Q 13.608 3.311 14.846 3.962 Q 16.084 4.614 17.117 5.552 Q 18.149 6.489 18.889 7.654 Q 19.629 8.818 20.039 10.203 A 10.161 10.161 0 0 1 20.447 12.91 A 11.417 11.417 0 0 1 20.449 13.125 A 10.351 10.351 0 0 1 20.135 15.699 A 9.585 9.585 0 0 1 20.039 16.047 Q 19.629 17.432 18.889 18.604 A 10.457 10.457 0 0 1 17.124 20.72 A 10.856 10.856 0 0 1 14.861 22.324 Q 13.623 22.983 12.209 23.342 A 11.77 11.77 0 0 1 9.302 23.701 Z M 37.852 8.276 L 35.068 12.891 Q 34.893 12.305 34.614 11.572 A 7.338 7.338 0 0 0 33.926 10.203 Q 33.516 9.565 32.944 9.133 A 2.126 2.126 0 0 0 31.626 8.701 A 2.266 2.266 0 0 0 30.983 8.789 A 1.897 1.897 0 0 0 30.432 9.053 Q 29.927 9.404 29.575 9.968 A 5.349 5.349 0 0 0 29.151 10.813 A 6.404 6.404 0 0 0 28.997 11.243 A 10.608 10.608 0 0 0 28.645 12.678 Q 28.521 13.403 28.477 14.07 A 23.881 23.881 0 0 0 28.45 14.544 Q 28.439 14.778 28.435 14.983 A 12.111 12.111 0 0 0 28.433 15.22 L 28.433 23.701 L 23.467 23.701 L 23.467 6.782 L 25.371 6.782 L 27.378 10.723 A 11.502 11.502 0 0 1 28.106 9.303 A 10.241 10.241 0 0 1 28.315 8.972 A 6.44 6.44 0 0 1 29.362 7.743 A 5.975 5.975 0 0 1 29.531 7.595 A 5.214 5.214 0 0 1 31.091 6.694 A 5.105 5.105 0 0 1 32.206 6.425 A 6.629 6.629 0 0 1 33.062 6.372 A 8.127 8.127 0 0 1 33.666 6.396 Q 33.984 6.42 34.336 6.467 Q 35.039 6.563 35.713 6.79 A 5.624 5.624 0 0 1 36.958 7.383 A 2.952 2.952 0 0 1 37.575 7.904 A 2.595 2.595 0 0 1 37.852 8.276 Z M 7.354 4.6 L 5.815 4.6 L 5.815 21.65 L 7.354 21.65 A 8.383 8.383 0 0 0 8.885 21.517 A 6.105 6.105 0 0 0 10.569 20.955 Q 11.924 20.259 12.81 19.08 A 7.887 7.887 0 0 0 13.992 16.788 A 9.159 9.159 0 0 0 14.121 16.362 A 12.021 12.021 0 0 0 14.544 13.363 A 13.459 13.459 0 0 0 14.546 13.125 A 12.643 12.643 0 0 0 14.249 10.353 A 11.567 11.567 0 0 0 14.128 9.866 A 8.272 8.272 0 0 0 13.342 7.927 A 7.337 7.337 0 0 0 12.832 7.148 Q 11.953 5.977 10.598 5.288 Q 9.282 4.619 7.46 4.6 A 10.245 10.245 0 0 0 7.354 4.6 Z M 44.897 6.797 L 44.897 23.701 L 39.932 23.701 L 39.932 6.797 L 44.897 6.797 Z M 70.239 15.674 Q 71.147 15.879 72.056 15.996 A 14.294 14.294 0 0 0 73.887 16.113 A 8.978 8.978 0 0 0 75.013 16.045 A 7.377 7.377 0 0 0 75.681 15.93 A 4.27 4.27 0 0 0 76.543 15.645 A 3.528 3.528 0 0 0 77.117 15.315 A 2.963 2.963 0 0 0 78.008 14.297 A 3.503 3.503 0 0 0 78.076 14.165 A 3.21 3.21 0 0 0 78.329 13.415 Q 78.403 13.063 78.422 12.656 A 6.093 6.093 0 0 0 78.428 12.378 A 5.546 5.546 0 0 0 78.349 11.428 A 4.533 4.533 0 0 0 78.193 10.796 A 3.553 3.553 0 0 0 77.788 9.942 A 3.143 3.143 0 0 0 77.498 9.565 A 3.149 3.149 0 0 0 76.425 8.794 A 3.633 3.633 0 0 0 76.362 8.767 A 3.502 3.502 0 0 0 75.535 8.536 A 4.779 4.779 0 0 0 74.795 8.481 Q 73.96 8.481 73.293 8.789 A 3.896 3.896 0 0 0 72.122 9.617 A 5.039 5.039 0 0 0 71.349 10.656 A 5.692 5.692 0 0 0 71.257 10.825 A 8.794 8.794 0 0 0 70.664 12.261 A 9.079 9.079 0 0 0 70.327 13.77 A 11.617 11.617 0 0 0 70.239 14.687 A 9.533 9.533 0 0 0 70.225 15.205 L 70.225 15.44 A 1.888 1.888 0 0 0 70.239 15.674 Z M 45.117 2.695 Q 45.117 3.252 44.905 3.75 A 2.714 2.714 0 0 1 44.326 4.614 A 2.714 2.714 0 0 1 43.462 5.193 Q 42.964 5.405 42.407 5.405 Q 41.851 5.405 41.36 5.193 A 2.736 2.736 0 0 1 40.503 4.614 A 2.714 2.714 0 0 1 39.924 3.75 Q 39.712 3.252 39.712 2.695 Q 39.712 2.139 39.924 1.648 A 2.736 2.736 0 0 1 40.503 0.791 Q 40.869 0.425 41.36 0.212 Q 41.851 0 42.407 0 Q 42.964 0 43.462 0.212 A 2.714 2.714 0 0 1 44.326 0.791 Q 44.692 1.157 44.905 1.648 Q 45.117 2.139 45.117 2.695 Z" vector-effect="non-scaling-stroke"/></g></svg>